# xmcd
#
# Track frame offsets:
#	150
#	12428
#	27442
#	43513
#	49359
#	63183
#	70826
#	85974
#	102027
#	118503
#	134543
#	149097
#	166652
#	179763
#	193146
#	205104
#
# Disc length: 2902 seconds
#
# Revision: 0
# Processed by: cddbd v1.5.2PL0 Copyright (c) Steve Scherf et al.
# Submitted via: EZCDAudioConverter 2.0.7.1
#
DISCID=eb0b5410
DTITLE=The Country Club Collection
DYEAR=1900
DGENRE=country
TTITLE0=Alabama - Loving You Is Killing Me
TTITLE1=Kenny Rogers - Just Dropped In (To See What Condition My Condition Was
TTITLE1=In)
TTITLE2=Tg Sheppard - I Loved Em Everyone
TTITLE3=Charley Pride - Id Rather Love You
TTITLE4=Lee Greenwood - Dixie Road
TTITLE5=Johnny Cash - Hey Good Lockin
TTITLE6=T Graham Brown - The Last Resort
TTITLE7=Mickey Gilley - A Headache Tomorrow (Or A Heartache Tonight)
TTITLE8=Lee Greenwood - Ring On Her Finger Time On Her Hands
TTITLE9=Kenny Rogers - Mommas Waiting
TTITLE10=Tg Sheppard - Only On You
TTITLE11=Glen Campbell - Its Your World Boys And Girls...Live
TTITLE12=Little Jimmy Dickens - Hillbilly Fever
TTITLE13=T Grahem Brown - I Wish That I Could Hurt That Way Again
TTITLE14=Mickey Gilley - Just Out Of Reach
TTITLE15=Charley Pride - Crystal Chandeliers
EXTD=
EXTT0=
EXTT1=
EXTT2=
EXTT3=
EXTT4=
EXTT5=
EXTT6=
EXTT7=
EXTT8=
EXTT9=
EXTT10=
EXTT11=
EXTT12=
EXTT13=
EXTT14=
EXTT15=
PLAYORDER=
